<?xml version="1.0" encoding="UTF-8" standalone="no"?>
<!DOCTYPE svg PUBLIC "-//W3C//DTD SVG 1.1//EN" "http://www.w3.org/Graphics/SVG/1.1/DTD/svg11.dtd">
<svg width="100%" height="100%" viewBox="0 0 30 30" version="1.1" xmlns="http://www.w3.org/2000/svg" xmlns:xlink="http://www.w3.org/1999/xlink" xml:space="preserve" style="fill-rule:evenodd;clip-rule:evenodd;stroke-linecap:round;stroke-miterlimit:10;">
    <g id="XMLID_2_">
        <path d="M15,28.9C13.4,25.9 7,19.5 5.1,15.4C4.5,14.1 4.1,12.7 4.1,11.2C4.2,5.7 9.1,1.1 15,1.1C20.9,1.1 25.9,5.7 25.9,11.2C25.9,12.7 25.5,14.1 24.9,15.4C23,19.5 16.6,25.9 15,28.9Z" style="fill:rgb(189,93,15);fill-rule:nonzero;"/>
        <g>
            <path d="M5.1,15.4C4.5,14.1 4.1,12.7 4.1,11.2C4.2,5.7 9.1,1.1 15,1.1C20.9,1.1 25.9,5.7 25.9,11.2C25.9,12.7 25.5,14.1 24.9,15.4" style="fill:none;stroke:rgb(229,175,131);stroke-width:2px;"/>
            <path d="M15.1,28.9" style="fill:none;stroke:rgb(229,175,131);stroke-width:2px;"/>
            <path d="M5.1,15.4C7,19.5 13.4,25.9 15,28.9" style="fill:none;stroke:rgb(229,175,131);stroke-width:2px;"/>
            <path d="M24.9,15.4C23,19.5 16.6,25.9 15,28.9" style="fill:none;stroke:rgb(229,175,131);stroke-width:2px;"/>
        </g>
    </g>
    <g transform="matrix(1,0,0,1,15,11.0812)">
        <g transform="matrix(1,0,0,1,-7.5,-7.5)">
            <path d="M9.32,7.655C10.878,7.108 11.947,5.651 12,4L3,4C3.053,5.63 4.098,7.073 5.63,7.631L4.923,9.044C3.566,8.809 2.275,9.718 2.039,11.075C1.804,12.432 2.713,13.723 4.07,13.959C4.993,14.119 5.927,13.749 6.49,13L10.713,13L11.048,13.717C11.132,13.891 11.307,14.001 11.5,14C11.573,14 11.646,13.984 11.712,13.953C11.962,13.836 12.07,13.539 11.953,13.289L9.32,7.655ZM4.5,12.75C3.81,12.75 3.25,12.19 3.25,11.5C3.25,10.81 3.81,10.25 4.5,10.25C5.19,10.25 5.75,10.81 5.75,11.5C5.748,12.19 5.19,12.748 4.5,12.75ZM6.95,12C7.157,10.993 6.723,9.963 5.859,9.406L6.6,7.923C7.177,8.027 7.768,8.027 8.345,7.923L10.245,11.993L6.95,12ZM4.75,1C4.612,1 4.5,1.112 4.5,1.25C4.5,1.75 4,1.75 4,1.75C3,1.75 3,2.75 3,2.75C3,2.888 3.112,3 3.25,3C3.388,3 3.5,2.888 3.5,2.75C3.5,2.25 4,2.25 4,2.25C5,2.25 5,1.25 5,1.25C5,1.112 4.888,1 4.75,1ZM6.75,1C6.612,1 6.5,1.112 6.5,1.25C6.5,1.75 6,1.75 6,1.75C5,1.75 5,2.75 5,2.75C5,2.888 5.112,3 5.25,3C5.388,3 5.5,2.888 5.5,2.75C5.5,2.25 6,2.25 6,2.25C7,2.25 7,1.25 7,1.25C7,1.112 6.888,1 6.75,1ZM8.75,1C8.612,1 8.5,1.112 8.5,1.25C8.5,1.75 8,1.75 8,1.75C7,1.75 7,2.75 7,2.75C7,2.888 7.112,3 7.25,3C7.388,3 7.5,2.888 7.5,2.75C7.5,2.25 8,2.25 8,2.25C9,2.25 9,1.25 9,1.25C9,1.112 8.888,1 8.75,1ZM10.75,1C10.612,1 10.5,1.112 10.5,1.25C10.5,1.75 10,1.75 10,1.75C9,1.75 9,2.75 9,2.75C9,2.888 9.112,3 9.25,3C9.388,3 9.5,2.888 9.5,2.75C9.5,2.25 10,2.25 10,2.25C11,2.25 11,1.25 11,1.25C11,1.112 10.888,1 10.75,1ZM12.75,1C12.612,1 12.5,1.112 12.5,1.25C12.5,1.75 12,1.75 12,1.75C11,1.75 11,2.75 11,2.75C11,2.888 11.112,3 11.25,3C11.388,3 11.5,2.888 11.5,2.75C11.5,2.25 12,2.25 12,2.25C13,2.25 13,1.25 13,1.25C13,1.112 12.888,1 12.75,1Z" style="fill:white;fill-rule:nonzero;"/>
        </g>
    </g>
</svg>
