<?xml version="1.0" encoding="UTF-8" standalone="no"?>
<!DOCTYPE svg PUBLIC "-//W3C//DTD SVG 1.1//EN" "http://www.w3.org/Graphics/SVG/1.1/DTD/svg11.dtd">
<svg width="100%" height="100%" viewBox="0 0 36 36" version="1.1" xmlns="http://www.w3.org/2000/svg" xmlns:xlink="http://www.w3.org/1999/xlink" xml:space="preserve" style="fill-rule:evenodd;clip-rule:evenodd;stroke-linecap:round;stroke-linejoin:round;stroke-miterlimit:1.5;">
    <g transform="matrix(1.47826,0,0,1.47826,-0.478261,-4.91304)">
        <circle cx="12.5" cy="15.5" r="11.5" style="fill:white;stroke:rgb(217,217,217);stroke-width:0.68px;"/>
    </g>
    <g transform="matrix(9.79717e-17,-1.6,1.6,9.79717e-17,18,18)">
        <g transform="matrix(1,0,0,1,-7.5,-7.5)">
            <path id="circle4604" d="M10,1C9.448,1 9,1.448 9,2C9,2.552 9.448,3 10,3C10.552,3 11,2.552 11,2C11,1.448 10.552,1 10,1ZM8.145,2.994C8.015,2.995 7.89,3.046 7.797,3.137L5.156,5.637C4.931,5.849 4.951,6.214 5.199,6.4L7,7.75L7,10.5C6.99,11.176 8.01,11.176 8,10.5L8,7.5C8,7.343 7.927,7.194 7.801,7.1L7.033,6.523L8.851,4.802L9.6,5.801C9.694,5.927 9.843,6 10,6L11.5,6C12.176,6.01 12.176,4.99 11.5,5L10.25,5L9.5,4L8.9,3.199C8.81,3.076 8.669,3 8.516,2.994L8.145,2.994ZM3,7C1.343,7 0,8.343 0,10C0,11.657 1.343,13 3,13C4.657,13 6,11.657 6,10C6,8.343 4.657,7 3,7ZM12,7C10.343,7 9,8.343 9,10C9,11.657 10.343,13 12,13C13.657,13 15,11.657 15,10C15,8.343 13.657,7 12,7ZM3,8C4.105,8 5,8.895 5,10C5,11.105 4.105,12 3,12C1.895,12 1,11.105 1,10C1,8.895 1.895,8 3,8ZM12,8C13.105,8 14,8.895 14,10C14,11.105 13.105,12 12,12C10.895,12 10,11.105 10,10C10,8.895 10.895,8 12,8Z" style="fill-rule:nonzero;"/>
        </g>
    </g>
</svg>
