<?xml version="1.0" encoding="UTF-8" standalone="no"?>
<!DOCTYPE svg PUBLIC "-//W3C//DTD SVG 1.1//EN" "http://www.w3.org/Graphics/SVG/1.1/DTD/svg11.dtd">
<svg width="100%" height="100%" viewBox="0 0 30 30" version="1.1" xmlns="http://www.w3.org/2000/svg" xmlns:xlink="http://www.w3.org/1999/xlink" xml:space="preserve" style="fill-rule:evenodd;clip-rule:evenodd;stroke-linecap:round;stroke-miterlimit:10;">
    <g id="XMLID_2_">
        <path d="M15,28.9C13.4,25.9 7,19.5 5.1,15.4C4.5,14.1 4.1,12.7 4.1,11.2C4.2,5.7 9.1,1.1 15,1.1C20.9,1.1 25.9,5.7 25.9,11.2C25.9,12.7 25.5,14.1 24.9,15.4C23,19.5 16.6,25.9 15,28.9Z" style="fill:rgb(99,54,0);fill-rule:nonzero;"/>
        <g>
            <path d="M5.1,15.4C4.5,14.1 4.1,12.7 4.1,11.2C4.2,5.7 9.1,1.1 15,1.1C20.9,1.1 25.9,5.7 25.9,11.2C25.9,12.7 25.5,14.1 24.9,15.4" style="fill:rgb(99,54,0);fill-rule:nonzero;stroke:rgb(171,138,101);stroke-width:2px;"/>
            <path d="M15.1,28.9" style="fill:rgb(99,54,0);fill-rule:nonzero;stroke:rgb(171,138,101);stroke-width:2px;"/>
            <path d="M5.1,15.4C7,19.5 13.4,25.9 15,28.9" style="fill:rgb(99,54,0);fill-rule:nonzero;stroke:rgb(171,138,101);stroke-width:2px;"/>
            <path d="M24.9,15.4C23,19.5 16.6,25.9 15,28.9" style="fill:rgb(99,54,0);fill-rule:nonzero;stroke:rgb(171,138,101);stroke-width:2px;"/>
        </g>
    </g>
    <g transform="matrix(1,0,0,1,15,10.5)">
        <g transform="matrix(1,0,0,1,-5.5,-5.5)">
            <path d="M7,9.5C7,9.776 6.776,10 6.5,10L2.5,10C2.224,10 2,9.776 2,9.5C2,9.224 2.224,9 2.5,9L6.5,9C6.776,9 7,9.224 7,9.5ZM8,3L7,3L7,2L2,2L2,6C2.002,7.381 3.122,8.499 4.503,8.497C5.495,8.496 6.392,7.909 6.79,7L8,7C9.105,7 10,6.105 10,5C10,3.895 9.105,3 8,3ZM8,6L7,6L7,4L8,4C8.552,4 9,4.448 9,5C9,5.552 8.552,6 8,6Z" style="fill:white;fill-rule:nonzero;"/>
        </g>
    </g>
</svg>
