<?xml version="1.0" encoding="UTF-8" standalone="no"?>
<!DOCTYPE svg PUBLIC "-//W3C//DTD SVG 1.1//EN" "http://www.w3.org/Graphics/SVG/1.1/DTD/svg11.dtd">
<svg width="100%" height="100%" viewBox="0 0 30 30" version="1.1" xmlns="http://www.w3.org/2000/svg" xmlns:xlink="http://www.w3.org/1999/xlink" xml:space="preserve" style="fill-rule:evenodd;clip-rule:evenodd;stroke-linecap:round;stroke-miterlimit:10;">
    <g id="XMLID_2_">
        <path d="M15,28.9C13.4,25.9 7,19.5 5.1,15.4C4.5,14.1 4.1,12.7 4.1,11.2C4.2,5.7 9.1,1.1 15,1.1C20.9,1.1 25.9,5.7 25.9,11.2C25.9,12.7 25.5,14.1 24.9,15.4C23,19.5 16.6,25.9 15,28.9Z" style="fill:rgb(228,220,67);fill-rule:nonzero;"/>
        <g>
            <path d="M5.1,15.4C4.5,14.1 4.1,12.7 4.1,11.2C4.2,5.7 9.1,1.1 15,1.1C20.9,1.1 25.9,5.7 25.9,11.2C25.9,12.7 25.5,14.1 24.9,15.4" style="fill:rgb(228,220,67);fill-rule:nonzero;stroke:rgb(255,253,209);stroke-width:2px;"/>
            <path d="M15.1,28.9" style="fill:rgb(228,220,67);fill-rule:nonzero;stroke:rgb(255,253,209);stroke-width:2px;"/>
            <path d="M5.1,15.4C7,19.5 13.4,25.9 15,28.9" style="fill:rgb(228,220,67);fill-rule:nonzero;stroke:rgb(255,253,209);stroke-width:2px;"/>
            <path d="M24.9,15.4C23,19.5 16.6,25.9 15,28.9" style="fill:rgb(228,220,67);fill-rule:nonzero;stroke:rgb(255,253,209);stroke-width:2px;"/>
        </g>
        <g transform="matrix(1,0,0,1,15,10.7175)">
            <g transform="matrix(1,0,0,1,-7.5,-7.5)">
                <path id="path4749-2-8-2" d="M7.5,0L5.5,5L0.5,5L4.5,8.5L2.5,14.5L7.5,11L12.5,14.5L10.5,8.5L14.5,5L9.5,5L7.5,0Z" style="fill:white;fill-rule:nonzero;"/>
            </g>
        </g>
    </g>
</svg>
