<?xml version="1.0" encoding="UTF-8" standalone="no"?>
<!DOCTYPE svg PUBLIC "-//W3C//DTD SVG 1.1//EN" "http://www.w3.org/Graphics/SVG/1.1/DTD/svg11.dtd">
<svg width="100%" height="100%" viewBox="0 0 36 36" version="1.1" xmlns="http://www.w3.org/2000/svg" xmlns:xlink="http://www.w3.org/1999/xlink" xml:space="preserve" style="fill-rule:evenodd;clip-rule:evenodd;stroke-linecap:round;stroke-linejoin:round;stroke-miterlimit:1.5;">
    <g transform="matrix(1.47826,0,0,1.47826,-0.478261,-4.91304)">
        <circle cx="12.5" cy="15.5" r="11.5" style="fill:white;stroke:rgb(217,217,217);stroke-width:0.68px;"/>
    </g>
    <g transform="matrix(6.67275e-17,-1.08974,1.08974,6.67275e-17,18,18)">
        <g transform="matrix(1,0,0,1,-12,-12)">
            <path d="M0,0L24,0L24,24L0,24L0,0Z" style="fill:none;"/>
            <path d="M13.5,5.5C14.6,5.5 15.5,4.6 15.5,3.5C15.5,2.4 14.6,1.5 13.5,1.5C12.4,1.5 11.5,2.4 11.5,3.5C11.5,4.6 12.4,5.5 13.5,5.5ZM9.8,8.9L7,23L9.1,23L10.9,15L13,17L13,23L15,23L15,15.5L12.9,13.5L13.5,10.5C14.8,12 16.8,13 19,13L19,11C17.1,11 15.5,10 14.7,8.6L13.7,7C13.3,6.4 12.7,6 12,6C11.7,6 11.5,6.1 11.2,6.1L6,8.3L6,13L8,13L8,9.6L9.8,8.9" style="fill-rule:nonzero;"/>
        </g>
    </g>
</svg>
